<svg width="682" height="275" viewBox="0 0 682 275" fill="none" xmlns="http://www.w3.org/2000/svg">
<path d="M17.3386 227.879C19.1745 232.167 23.7256 235.198 28.5066 235.198C33.2674 235.198 37.8097 232.159 39.6614 227.89" stroke="white" stroke-opacity="0.15" stroke-width="2.05444" stroke-linecap="round" stroke-linejoin="round"/>
<ellipse cx="21.3275" cy="215.73" rx="2.37866" ry="2.41525" fill="white" fill-opacity="0.15"/>
<ellipse cx="35.5994" cy="215.73" rx="2.37866" ry="2.41525" fill="white" fill-opacity="0.15"/>
<path d="M28.5 247.348C41.6168 247.348 52.25 236.469 52.25 223.049C52.25 209.629 41.6168 198.75 28.5 198.75C15.3832 198.75 4.75 209.629 4.75 223.049C4.75 236.469 15.3832 247.348 28.5 247.348Z" stroke="white" stroke-opacity="0.15" stroke-width="2.05444" stroke-linecap="round" stroke-linejoin="round"/>
<path d="M123.339 147.879C125.174 152.167 129.726 155.198 134.507 155.198C139.267 155.198 143.81 152.159 145.661 147.89" stroke="white" stroke-opacity="0.15" stroke-width="2.05444" stroke-linecap="round" stroke-linejoin="round"/>
<ellipse cx="127.327" cy="135.73" rx="2.37866" ry="2.41525" fill="white" fill-opacity="0.15"/>
<ellipse cx="141.599" cy="135.73" rx="2.37866" ry="2.41525" fill="white" fill-opacity="0.15"/>
<path d="M134.5 167.348C147.617 167.348 158.25 156.469 158.25 143.049C158.25 129.629 147.617 118.75 134.5 118.75C121.383 118.75 110.75 129.629 110.75 143.049C110.75 156.469 121.383 167.348 134.5 167.348Z" stroke="white" stroke-opacity="0.15" stroke-width="2.05444" stroke-linecap="round" stroke-linejoin="round"/>
<path d="M27.3386 40.8794C29.1745 45.1667 33.7256 48.1983 38.5066 48.1983C43.2674 48.1983 47.8097 45.1589 49.6614 40.8901" stroke="white" stroke-opacity="0.15" stroke-width="2.05444" stroke-linecap="round" stroke-linejoin="round"/>
<ellipse cx="31.3275" cy="28.73" rx="2.37866" ry="2.41525" fill="white" fill-opacity="0.15"/>
<ellipse cx="45.5994" cy="28.73" rx="2.37866" ry="2.41525" fill="white" fill-opacity="0.15"/>
<path d="M38.5 60.3478C51.6168 60.3478 62.25 49.4688 62.25 36.0489C62.25 22.629 51.6168 11.75 38.5 11.75C25.3832 11.75 14.75 22.629 14.75 36.0489C14.75 49.4688 25.3832 60.3478 38.5 60.3478Z" stroke="white" stroke-opacity="0.15" stroke-width="2.05444" stroke-linecap="round" stroke-linejoin="round"/>
<path d="M247.339 232.879C249.174 237.167 253.726 240.198 258.507 240.198C263.267 240.198 267.81 237.159 269.661 232.89" stroke="white" stroke-opacity="0.15" stroke-width="2.05444" stroke-linecap="round" stroke-linejoin="round"/>
<ellipse cx="251.327" cy="220.73" rx="2.37866" ry="2.41525" fill="white" fill-opacity="0.15"/>
<ellipse cx="265.599" cy="220.73" rx="2.37866" ry="2.41525" fill="white" fill-opacity="0.15"/>
<path d="M258.5 252.348C271.617 252.348 282.25 241.469 282.25 228.049C282.25 214.629 271.617 203.75 258.5 203.75C245.383 203.75 234.75 214.629 234.75 228.049C234.75 241.469 245.383 252.348 258.5 252.348Z" stroke="white" stroke-opacity="0.15" stroke-width="2.05444" stroke-linecap="round" stroke-linejoin="round"/>
<path d="M240.951 74.3975C242.11 77.1053 244.985 79.02 248.004 79.02C251.011 79.02 253.88 77.1004 255.049 74.4043" stroke="white" stroke-opacity="0.15" stroke-width="2.05444" stroke-linecap="round" stroke-linejoin="round"/>
<ellipse cx="243.47" cy="66.7242" rx="1.50231" ry="1.52542" fill="white" fill-opacity="0.15"/>
<ellipse cx="252.484" cy="66.7242" rx="1.50231" ry="1.52542" fill="white" fill-opacity="0.15"/>
<path d="M248 86.6934C256.284 86.6934 263 79.8224 263 71.3467C263 62.8709 256.284 56 248 56C239.716 56 233 62.8709 233 71.3467C233 79.8224 239.716 86.6934 248 86.6934Z" stroke="white" stroke-opacity="0.15" stroke-width="2.05444" stroke-linecap="round" stroke-linejoin="round"/>
<path d="M388.339 33.8794C390.174 38.1667 394.726 41.1983 399.507 41.1983C404.267 41.1983 408.81 38.1589 410.661 33.8901" stroke="white" stroke-opacity="0.15" stroke-width="2.05444" stroke-linecap="round" stroke-linejoin="round"/>
<ellipse cx="392.327" cy="21.73" rx="2.37866" ry="2.41525" fill="white" fill-opacity="0.15"/>
<ellipse cx="406.599" cy="21.73" rx="2.37866" ry="2.41525" fill="white" fill-opacity="0.15"/>
<path d="M399.5 53.3478C412.617 53.3478 423.25 42.4688 423.25 29.0489C423.25 15.629 412.617 4.75 399.5 4.75C386.383 4.75 375.75 15.629 375.75 29.0489C375.75 42.4688 386.383 53.3478 399.5 53.3478Z" stroke="white" stroke-opacity="0.15" stroke-width="2.05444" stroke-linecap="round" stroke-linejoin="round"/>
<path d="M360.339 149.879C362.174 154.167 366.726 157.198 371.507 157.198C376.267 157.198 380.81 154.159 382.661 149.89" stroke="white" stroke-opacity="0.15" stroke-width="2.05444" stroke-linecap="round" stroke-linejoin="round"/>
<ellipse cx="364.327" cy="137.73" rx="2.37866" ry="2.41525" fill="white" fill-opacity="0.15"/>
<ellipse cx="378.599" cy="137.73" rx="2.37866" ry="2.41525" fill="white" fill-opacity="0.15"/>
<path d="M371.5 169.348C384.617 169.348 395.25 158.469 395.25 145.049C395.25 131.629 384.617 120.75 371.5 120.75C358.383 120.75 347.75 131.629 347.75 145.049C347.75 158.469 358.383 169.348 371.5 169.348Z" stroke="white" stroke-opacity="0.15" stroke-width="2.05444" stroke-linecap="round" stroke-linejoin="round"/>
<path d="M474.297 255.936C475.811 259.471 479.563 261.971 483.505 261.971C487.431 261.971 491.176 259.464 492.703 255.944" stroke="white" stroke-opacity="0.15" stroke-width="2.05444" stroke-linecap="round" stroke-linejoin="round"/>
<ellipse cx="477.586" cy="245.918" rx="1.96135" ry="1.99153" fill="white" fill-opacity="0.15"/>
<ellipse cx="489.354" cy="245.918" rx="1.96135" ry="1.99153" fill="white" fill-opacity="0.15"/>
<path d="M483.5 271.989C494.316 271.989 503.083 263.018 503.083 251.953C503.083 240.887 494.316 231.917 483.5 231.917C472.684 231.917 463.917 240.887 463.917 251.953C463.917 263.018 472.684 271.989 483.5 271.989Z" stroke="white" stroke-opacity="0.15" stroke-width="2.05444" stroke-linecap="round" stroke-linejoin="round"/>
<path d="M498.297 106.936C499.811 110.471 503.563 112.971 507.505 112.971C511.431 112.971 515.176 110.464 516.703 106.944" stroke="white" stroke-opacity="0.15" stroke-width="2.05444" stroke-linecap="round" stroke-linejoin="round"/>
<ellipse cx="501.586" cy="96.9177" rx="1.96135" ry="1.99153" fill="white" fill-opacity="0.15"/>
<ellipse cx="513.354" cy="96.9177" rx="1.96135" ry="1.99153" fill="white" fill-opacity="0.15"/>
<path d="M507.5 122.989C518.316 122.989 527.083 114.018 527.083 102.953C527.083 91.8871 518.316 82.9167 507.5 82.9167C496.684 82.9167 487.917 91.8871 487.917 102.953C487.917 114.018 496.684 122.989 507.5 122.989Z" stroke="white" stroke-opacity="0.15" stroke-width="2.05444" stroke-linecap="round" stroke-linejoin="round"/>
<path d="M593.297 69.9357C594.811 73.4709 598.563 75.9706 602.505 75.9706C606.431 75.9706 610.176 73.4644 611.703 69.9445" stroke="white" stroke-opacity="0.15" stroke-width="2.05444" stroke-linecap="round" stroke-linejoin="round"/>
<ellipse cx="596.586" cy="59.9177" rx="1.96135" ry="1.99153" fill="white" fill-opacity="0.15"/>
<ellipse cx="608.354" cy="59.9177" rx="1.96135" ry="1.99153" fill="white" fill-opacity="0.15"/>
<path d="M602.5 85.9886C613.316 85.9886 622.083 77.0182 622.083 65.9526C622.083 54.8871 613.316 45.9167 602.5 45.9167C591.684 45.9167 582.917 54.8871 582.917 65.9526C582.917 77.0182 591.684 85.9886 602.5 85.9886Z" stroke="white" stroke-opacity="0.15" stroke-width="2.05444" stroke-linecap="round" stroke-linejoin="round"/>
<path d="M649.297 184.936C650.811 188.471 654.563 190.971 658.505 190.971C662.431 190.971 666.176 188.464 667.703 184.944" stroke="white" stroke-opacity="0.15" stroke-width="2.05444" stroke-linecap="round" stroke-linejoin="round"/>
<ellipse cx="652.586" cy="174.918" rx="1.96135" ry="1.99153" fill="white" fill-opacity="0.15"/>
<ellipse cx="664.354" cy="174.918" rx="1.96135" ry="1.99153" fill="white" fill-opacity="0.15"/>
<path d="M658.5 200.989C669.316 200.989 678.083 192.018 678.083 180.953C678.083 169.887 669.316 160.917 658.5 160.917C647.684 160.917 638.917 169.887 638.917 180.953C638.917 192.018 647.684 200.989 658.5 200.989Z" stroke="white" stroke-opacity="0.15" stroke-width="2.05444" stroke-linecap="round" stroke-linejoin="round"/>
</svg>
